<?xml version="1.0" encoding="utf-8"?>
<!-- Generator: Adobe Illustrator 19.0.0, SVG Export Plug-In . SVG Version: 6.00 Build 0)  -->
<svg version="1.1" id="Layer_1" xmlns="http://www.w3.org/2000/svg" xmlns:xlink="http://www.w3.org/1999/xlink" x="0px" y="0px"
	 viewBox="0 0 2000 2000" style="enable-background:new 0 0 2000 2000;" xml:space="preserve">
<style type="text/css">
	.st0{fill:#333333;}
	.st1{fill:#2E3192;}
</style>
<path id="XMLID_198_" class="st0" d="M986,2000c-349.1-171.8-665.8-327.7-986-485.2C0,1178.9,0,850,0,497.9
	c192.6-96.7,396.3-199,605.2-304c68.1,32.3,135,64.1,232.1,110.2C614.1,416,413,516.7,213.3,616.7c0,262.7,0,512.4,0,774.4
	c177.5,88.2,354.7,176.3,551.6,274.2c0-266.3,0-507.1,0-763.4c214.8-105.9,426.5-210.3,637.7-314.4
	c71.6,35.8,134.4,67.3,202.4,101.3c0,332.7,0,661.5,0,1008.7c-146.4,72.8-301.5,149.9-473.2,235.3c0-82.7,0-145.9,0-221.3
	c78.1-42.2,161.7-87.4,250-135.1c0-249.6,0-497.6,0-772.8c-140.4,66.1-262.3,123.6-395.8,186.5C986,1316.5,986,1640.6,986,2000z"/>
<path id="XMLID_197_" class="st1" d="M1386.5,418.9c-259.3,127-513.6,251.5-781.8,382.8c0,194.7,0,388.9,0,610
	c-83.1-34.3-141.6-58.4-205.5-84.8c0-207.2,0-406.2,0-622.1c241-123.1,488.6-249.5,764.3-390.3C1030.8,242.7,921,183.3,788.8,111.8
	C867.6,72.4,925.5,43.5,999,6.7c330.7,163.7,665.9,329.6,1001,495.6c0,334.9,0,655.3,0,989.7c-60.3,28.6-121.8,57.7-210.8,99.9
	c0-342.3,0-660.8,0-977.8C1644.1,543.9,1517.4,482.4,1386.5,418.9z"/>
</svg>
